<?xml version="1.0" encoding="UTF-8" standalone="no"?>
<!DOCTYPE svg PUBLIC "-//W3C//DTD SVG 1.1//EN" "http://www.w3.org/Graphics/SVG/1.1/DTD/svg11.dtd">
<svg width="24" height="24" viewBox="0 0 24 24" version="1.1" xmlns="http://www.w3.org/2000/svg" xmlns:xlink="http://www.w3.org/1999/xlink" xml:space="preserve" xmlns:serif="http://www.serif.com/" style="fill-rule:evenodd;clip-rule:evenodd;stroke-linejoin:round;stroke-miterlimit:2;">
    <g transform="matrix(0.025,0,0,0.025,0,0)">
        <g transform="matrix(1.018047,-0,-0.541466,1.161177,196.744661,36.27303)">
            <path d="M761.555,145.402C786.564,146.436 814.357,158.497 831.678,172.26C848.686,185.774 863.552,206.341 865.479,227.979C871.112,291.242 879.538,486.691 865.479,551.84C857.903,586.947 816.856,615.262 781.122,618.869C670.443,630.041 309.711,623.345 201.404,618.869C176.395,617.835 148.602,605.774 131.281,592.011C114.273,578.497 99.407,557.93 97.48,536.292C91.847,473.029 83.421,277.58 97.48,212.431C105.057,177.324 146.104,149.009 181.837,145.402C292.516,134.23 653.248,140.926 761.555,145.402ZM403.558,531.894L439.421,477.331L663.012,477.331C677.01,477.331 683.067,467.382 676.539,455.109L583.479,280.14C576.951,267.867 560.311,257.918 546.313,257.918L283.186,257.918C269.187,257.918 263.131,267.867 269.658,280.14L403.558,531.894Z"/>
        </g>
        <g transform="matrix(1.348032,0,0,1.348032,-284.33466,-167.054838)">
            <path d="M488,419.613C488,415.961 490.961,413 494.613,413L637.387,413C641.039,413 644,415.961 644,419.613L644,432.387C644,436.039 641.039,439 637.387,439L494.613,439C490.961,439 488,436.039 488,432.387L488,419.613Z"/>
        </g>
        <g transform="matrix(1.348032,0,0,1.348032,-284.33466,-167.054838)">
            <path d="M488,461.867C488,458.075 491.075,455 494.867,455L637.133,455C640.925,455 644,458.075 644,461.867L644,475.133C644,478.925 640.925,482 637.133,482L494.867,482C491.075,482 488,478.925 488,475.133L488,461.867Z"/>
        </g>
        <g transform="matrix(1.348032,0,0,1.348032,-284.33466,-167.054838)">
            <path d="M488,504.867C488,501.075 491.075,498 494.867,498L569.133,498C572.925,498 576,501.075 576,504.867L576,518.133C576,521.925 572.925,525 569.133,525L494.867,525C491.075,525 488,521.925 488,518.133L488,504.867Z"/>
        </g>
    </g>
</svg>
